<svg width="200" height="200" viewBox="0 0 200 200" xmlns="http://www.w3.org/2000/svg">
  <defs>
    <linearGradient id="logoGradient" x1="0%" y1="0%" x2="100%" y2="100%">
      <stop offset="0%" stop-color="#4F46E5" />
      <stop offset="100%" stop-color="#06B6D4" />
    </linearGradient>
    <filter id="glow" x="-20%" y="-20%" width="140%" height="140%">
      <feGaussianBlur stdDeviation="2" result="glow" />
      <feMerge>
        <feMergeNode in="glow" />
        <feMergeNode in="SourceGraphic" />
      </feMerge>
    </filter>
  </defs>
  
  <!-- Circle background -->
  <circle cx="100" cy="100" r="90" fill="white" stroke="url(#logoGradient)" stroke-width="8" />
  
  <!-- Dumbbell bar -->
  <rect x="55" y="85" width="90" height="10" rx="5" fill="url(#logoGradient)" filter="url(#glow)" />
  <rect x="55" y="105" width="90" height="10" rx="5" fill="url(#logoGradient)" filter="url(#glow)" />
  
  <!-- Dumbbell weights - left side -->
  <rect x="35" y="75" width="20" height="50" rx="8" fill="url(#logoGradient)" filter="url(#glow)" />
  
  <!-- Dumbbell weights - right side -->
  <rect x="145" y="75" width="20" height="50" rx="8" fill="url(#logoGradient)" filter="url(#glow)" />
  
  <!-- G overlay in negative space -->
  <path d="M95 65 A35 35 0 1 0 95 135 L95 115 L75 115 L75 95 L85 95" 
        stroke="white" stroke-width="10" stroke-linecap="round" stroke-linejoin="round" fill="none" />
  
  <!-- B overlay in negative space -->
  <path d="M105 65 L105 135 M105 65 L125 65 C135 65 140 75 130 85 C140 95 135 105 125 105 L105 105 M105 105 L125 105 C135 105 140 115 130 125 C125 135 115 135 105 135" 
        stroke="white" stroke-width="10" stroke-linecap="round" stroke-linejoin="round" fill="none" />
</svg> 